<?xml version="1.0" encoding="utf-8"?>
<!-- Generator: Adobe Illustrator 23.0.1, SVG Export Plug-In . SVG Version: 6.00 Build 0)  -->
<svg version="1.1" id="Layer_1" xmlns="http://www.w3.org/2000/svg" xmlns:xlink="http://www.w3.org/1999/xlink" x="0px" y="0px"
	 viewBox="0 0 1000 1000" style="enable-background:new 0 0 1000 1000;" xml:space="preserve">
<style type="text/css">
	.st0{fill:#7CA7B7;}
	.st1{fill:#3D78A3;}
	.st2{fill:#FFFFFF;}
</style>
<circle class="st0" cx="500" cy="500" r="486.01"/>
<path class="st1" d="M852.55,834.54c-73.94,78.01-159.6,112.39-175.6,118.63c-48.14,18.74-91.01,26.39-121.72,29.75
	c-55.06-63.04-110.13-126.08-165.19-189.11c0-34.35,0-68.7,0-103.05c-26.19-20.84-52.37-41.67-78.56-62.51
	c15.96-46.46,31.91-92.91,47.87-139.37c50.26-31.53,100.52-63.07,150.79-94.6c-13.47-24.4-26.94-48.8-40.42-73.21
	c24.03-40.54,48.05-81.09,72.08-121.63C689.87,299.62,837.94,399.81,986.01,500C984.54,544.27,974.01,706.4,852.55,834.54z"/>
<circle class="st2" cx="510.65" cy="271.37" r="99.99"/>
<path class="st2" d="M510.14,394.27c29.2,0.63,58.4,1.25,87.6,1.88c6.74-0.2,16.88,0.37,27.75,4.88
	c30.13,12.5,42.61,45.58,50.9,67.57c3.62,9.6,7.71,22.83,10.14,39.24v209.09c-0.64,3.46-4.38,21.91-21.96,33.79
	c-15.42,10.42-31.36,8.95-35.48,8.45l0.84,34.63H390.04V690.75c36.65-21.96,73.3-43.92,109.96-65.88c2.7-1.62,13.67-7.75,26.32-18.3
	c10.75-8.97,16.13-13.46,20.27-20.84c10.68-19.02,4.89-40.35,2.82-46.74c-5.42-16.72-16.32-26.82-21.68-31.15
	c0-8.76,0-17.53,0-26.29c10.11-7.24,14.21-20.22,10.14-31.53c-4.24-11.76-15.98-18.01-27.03-17.74
	c-11.69,0.28-22.37,7.86-26.19,19.15c-3.38,10.02-0.77,21.24,6.76,29c0.09,8.35,0.19,16.71,0.28,25.06
	c-35.85,17.27-71.7,34.54-107.56,51.81l10.14,19.43l97.98-54.06c14.7-2.69,29.58,4.09,37.17,16.89c7.68,12.97,6.33,29.5-3.38,41.11
	c-45.61,29.28-91.23,58.56-136.84,87.85c-18.87,15.71-44.99,16.26-61.66,2.82c-19.13-15.42-16.25-41.52-16.05-43.08
	c2.67-52.25,12.91-93.91,21.96-122.48c15.18-47.9,28.27-87.22,64.2-103.9c14.73-6.84,28.97-7.86,38.86-7.6H510.14z"/>
</svg>
