<?xml version="1.0" encoding="utf-8"?>
<!-- Generator: Adobe Illustrator 23.0.1, SVG Export Plug-In . SVG Version: 6.00 Build 0)  -->
<svg version="1.1" id="Layer_1" xmlns="http://www.w3.org/2000/svg" xmlns:xlink="http://www.w3.org/1999/xlink" x="0px" y="0px"
	 viewBox="0 0 1000 1000" style="enable-background:new 0 0 1000 1000;" xml:space="preserve">
<style type="text/css">
	.st0{fill:#F7942C;}
	.st1{fill:#F36F29;}
	.st2{fill:#F8FBF8;}
</style>
<circle class="st0" cx="500" cy="500" r="486.01"/>
<path class="st1" d="M675,304.38l298.26,304.14c-10.69,45.15-42.8,153.13-141.13,245.24C698.73,978.7,538.75,985.16,499.06,985.62
	c-61.59-61.97-123.17-123.94-184.76-185.91c71.27-54.18,142.55-108.35,213.82-162.53l6.25-421.88L675,304.38z"/>
<path class="st2" d="M547.44,157.76c1.74,0.7,2.98,1.79,3.8,2.67c24.96,41.8,50.02,71.46,68.28,90.8
	c37.02,39.22,60.64,51.5,76.81,86.14c15.7,33.63,14.61,67.43,11.41,90.31c-7.32,22.9-14.64,45.8-21.96,68.7
	c-1.37,4.42-3.2,9.58-4.32,9.39c-1.46-0.25-1-9.43-0.94-10.89c0.58-14.77-8.05-67.07-33.97-113.56
	c-30.78-55.19-76.72-85.64-99.11-98.55v423.47c-5.57,18.13-21.69,61.5-64.2,89.54c-60.57,39.95-158.8,38.23-188.08-12.39
	c-23.91-41.33,8.83-96.8,11.26-100.8c28.89-47.49,88.75-72.99,154.29-65.32c12.78,3,25.56,6.01,38.35,9.01l5.58-436.98
	c7.07-11.11,14.78-18.23,20.27-22.52C531.65,161.5,540.3,154.9,547.44,157.76z"/>
</svg>
