<?xml version="1.0" encoding="utf-8"?>
<!-- Generator: Adobe Illustrator 23.0.1, SVG Export Plug-In . SVG Version: 6.00 Build 0)  -->
<svg version="1.1" id="Layer_1" xmlns="http://www.w3.org/2000/svg" xmlns:xlink="http://www.w3.org/1999/xlink" x="0px" y="0px"
	 viewBox="0 0 1000 1000" style="enable-background:new 0 0 1000 1000;" xml:space="preserve">
<style type="text/css">
	.st0{fill:#184659;}
	.st1{fill:#06303D;}
	.st2{fill:#FFFFFF;}
</style>
<circle class="st0" cx="500" cy="500" r="486.01"/>
<path class="st1" d="M852.55,834.54c-74.18,78.25-164.28,114.21-175.6,118.63c-33.55,13.09-63.23,20.23-85.27,24.35
	c-95.93-92.49-191.86-184.98-287.79-277.47c17.49-4.6,36.05-11.84,54.34-23.09c90.39-55.58,106.1-166.94,108.96-191.18
	c-27.12-25.43-54.25-50.87-81.37-76.3c-5.57-12.36-10.5-26.96-13.23-43.64c-11.77-71.89,25.78-130.39,39.49-149.73
	C603.39,310.73,794.7,405.37,986.01,500C984.54,544.27,974.01,706.4,852.55,834.54z"/>
<path class="st2" d="M461.28,306.98c-11.71,13.3-24.09,26.84-37.17,40.54c-15.23,15.96-30.29,30.96-45.05,45.05
	c-61.91,9.25-116-36.77-118.4-91.2c-2.35-53.22,45.34-100.03,99.99-99.99C415.6,201.42,462.47,248.8,461.28,306.98z"/>
<polygon class="st2" points="477.89,322.47 529.42,374.84 442.41,462.69 385.82,409.47 "/>
<path class="st2" d="M494.78,444.1c15.49-19.15,30.97-38.29,46.46-57.44c13.8-5.43,29.13-3.21,39.7,5.91
	c11.26,9.72,12.48,23.27,12.67,26.19c2.39,0.49,16.11,3.53,24.5,16.89c7.56,12.05,5.59,24.24,5.07,27.03
	c3.93,0.82,16.14,3.88,25.58,15.2c12.44,14.93,10.31,32.54,9.9,35.48c5.15,0.84,14.54,3.24,21.96,10.98
	c12.01,12.53,13.88,33.86,4.22,53.21c-5.55,15.94-14.58,36.3-29.56,57.44c-25.03,35.3-54.67,55.85-73.49,66.73
	c-33.61,22.01-60.97,40.75-81.25,54.9c-11.75,8.21-24.53,17.25-39.9,31.25c-13.67,12.45-23.98,23.89-30.9,32.1L303.89,700.04
	c15.54-13.81,34.39-35.09,43.08-65.04c2.17-7.48,2.49-12.49,5.91-76.87c1.04-19.59,4.86-47.48,17.74-81.09
	c3.25-9.94,13.36-16.07,23.65-14.36c10.25,1.7,17.82,10.71,17.74,21.12c2.1,4.77,5.73,10.77,11.83,12.67
	c5.93,1.85,13.81-0.3,41.39-24.5C473.08,465.09,483.28,455.75,494.78,444.1z"/>
<path class="st2" d="M711.02,577.56c9.24,5.66,39.13,25.41,45.52,57.34c2.2,10.99,0.67,18.7,0.09,21.21
	c-3.27,14.34-13.8,28.32-29.56,34.63c-3.96,1.58-19.2,7.4-36.06,0c-17.02-7.48-23.12-22.92-24.2-25.81
	c8.51-11.19,17.97-25.44,26.65-42.8C701.67,605.76,707.21,590.51,711.02,577.56z"/>
</svg>
