<?xml version="1.0" encoding="utf-8"?>
<!-- Generator: Adobe Illustrator 23.0.1, SVG Export Plug-In . SVG Version: 6.00 Build 0)  -->
<svg version="1.1" id="Layer_1" xmlns="http://www.w3.org/2000/svg" xmlns:xlink="http://www.w3.org/1999/xlink" x="0px" y="0px"
	 viewBox="0 0 1000 1000" style="enable-background:new 0 0 1000 1000;" xml:space="preserve">
<style type="text/css">
	.st0{fill:#7CA7B7;}
	.st1{fill:#3D78A3;}
	.st2{fill:#FFFFFF;}
</style>
<circle class="st0" cx="500" cy="500" r="486.01"/>
<path class="st1" d="M852.55,834.54c-73.94,78.01-159.6,112.39-175.6,118.63c-48.14,18.74-91.01,26.39-121.72,29.75
	c-126.48-79.09-252.96-158.17-379.44-237.26c28.34-24.78,56.68-49.55,85.01-74.33c-12.95-32.03-25.89-64.05-38.84-96.08
	c45.8-28.79,91.59-57.58,137.39-86.37c13.51-32.66,27.03-65.32,40.54-97.98c23.28-23.28,46.55-46.55,69.83-69.83
	c24.03-40.54,48.05-81.09,72.08-121.63C689.87,299.62,837.94,399.81,986.01,500C984.54,544.27,974.01,706.4,852.55,834.54z"/>
<circle class="st2" cx="496.61" cy="242.33" r="65.42"/>
<circle class="st2" cx="276.78" cy="598.63" r="59.58"/>
<circle class="st2" cx="500" cy="598.63" r="59.58"/>
<circle class="st2" cx="726.51" cy="598.63" r="59.58"/>
<path class="st2" d="M469.73,321.06c10.39,11.64,20.77,23.28,31.16,34.91c9.89-11.64,19.77-23.28,29.66-34.91
	c4.33,0.32,40.25,3.57,59.32,34.16c10.12,16.23,10.74,32.56,10.51,40.17c-67.32,0-134.65,0-201.97,0
	c-0.14-4.3-0.65-35.02,24.03-56.73C441.6,321.78,463.81,321.06,469.73,321.06z"/>
<path class="st2" d="M466.95,671.32c20.27,0,40.54,0,60.82,0c4.33,0.32,40.25,3.57,59.32,34.16c10.12,16.23,10.74,32.56,10.51,40.17
	c-67.32,0-134.65,0-201.97,0c-0.14-4.3-0.65-35.02,24.03-56.73C438.82,672.04,461.03,671.33,466.95,671.32z"/>
<path class="st2" d="M247.12,671.32c20.27,0,40.54,0,60.82,0c4.33,0.32,40.25,3.57,59.32,34.16c10.12,16.23,10.74,32.56,10.51,40.17
	c-67.32,0-134.65,0-201.97,0c-0.14-4.3-0.65-35.02,24.03-56.73C219,672.04,241.2,671.33,247.12,671.32z"/>
<path class="st2" d="M696.85,671.32c20.27,0,40.54,0,60.82,0c4.33,0.32,40.25,3.57,59.32,34.16c10.12,16.23,10.74,32.56,10.51,40.17
	c-67.32,0-134.65,0-201.97,0c-0.14-4.3-0.65-35.02,24.03-56.73C668.73,672.04,690.93,671.33,696.85,671.32z"/>
<path class="st2" d="M332.32,419.05c110.37,0,220.74,0,331.11,0l-12.95,72.75h-25.34l-1.13,123.78c-9.01,0-18.02,0-27.03,0
	c0.25-48.25,0.5-96.5,0.75-144.75c-65.95-0.37-131.9-0.73-197.84-1.1c0.19,48.8,0.38,97.61,0.56,146.41
	c-8.63,0.28-17.27,0.56-25.9,0.84c0.38-41.39,0.75-82.78,1.13-124.17c-9.57-1.13-19.15-2.25-28.72-3.38
	C342.09,465.97,337.21,442.51,332.32,419.05z"/>
</svg>
