<?xml version="1.0" encoding="utf-8"?>
<!-- Generator: Adobe Illustrator 23.0.1, SVG Export Plug-In . SVG Version: 6.00 Build 0)  -->
<svg version="1.1" id="Layer_1" xmlns="http://www.w3.org/2000/svg" xmlns:xlink="http://www.w3.org/1999/xlink" x="0px" y="0px"
	 viewBox="0 0 1000 1000" style="enable-background:new 0 0 1000 1000;" xml:space="preserve">
<style type="text/css">
	.st0{fill:#ED9972;}
	.st1{fill:#80301A;}
	.st2{fill:#8D5D2D;}
	.st3{fill:none;stroke:#FFFFFF;stroke-width:20;stroke-miterlimit:10;}
	.st4{fill:#152533;}
	.st5{fill:#FFFFFF;}
</style>
<circle class="st0" cx="500" cy="496" r="486.01"/>
<path class="st1" d="M239.5,765.65c95.79-30.47,173.26-32.18,245.35-33.23c84.48-1.22,153.73-2.22,240.82,25.24
	c59.46,18.75,105.35,43.87,135.88,63.14c-19.38,23.5-49.45,55.06-92.38,84.04c-13.35,9.01-77.94,51.44-175.17,69.27
	c-19.66,3.61-89.44,15.15-178.5-0.56c-32.39-5.71-99.74-18.34-173.66-64.38c-53.29-33.19-89.59-71.04-111.89-98.08
	C155.82,797.67,193,780.44,239.5,765.65z"/>
<path class="st2" d="M301.54,260.25c16.66-95.14,98.78-165.79,194.79-168.02c94.82-2.2,179.37,62.88,201.65,155.63
	c0,36.42,0,72.83,0,109.25c6.52,4.33,16.41,12.03,24.91,24.35c21.53,31.2,16.01,65.72,14.5,73.63
	c-3.97,20.89-14.02,35.91-19.24,43.71c-6.01,8.98-12.12,15.78-16.8,20.49c-3.61,25.36-11.61,60.7-30.55,99.16
	c-13.4,27.22-28.69,48.7-41.99,64.72c-0.22,41.86-0.45,83.71-0.67,125.57c-14.8,57.91-66.98,98.76-126.14,99.11
	c-57.62,0.34-109.25-37.79-126.14-93.48c-0.47-43.1-0.93-86.21-1.4-129.31c-12.52-13.92-26.99-32.85-39.6-57.23
	c-21.75-42.04-28.05-81.15-29.95-106.28c-6.44-4.81-16.18-13.15-24.78-25.9c-3.63-5.38-30.95-47.35-13.51-93.48
	c8.14-21.53,22.74-35.28,32.66-42.8C300.03,326.32,300.79,293.28,301.54,260.25z"/>
<g>
	<ellipse class="st3" cx="591.65" cy="432.28" rx="66.99" ry="68.93"/>
	<ellipse class="st3" cx="408.35" cy="432.28" rx="66.99" ry="68.93"/>
	<rect x="479.26" y="423.31" class="st3" width="45.4" height="15.77"/>
</g>
<path class="st4" d="M498.23,559.82c19.59-0.51,33.45,8.11,38.05,11.26c7.42,6.95,21.15,17.52,39.42,18.65
	c16.94,1.05,29.82-6.52,50.31-20.15c19.96-13.27,45.28-31.06,73.96-53.68c-1.79,26.59-7.98,63.47-27.03,102.86
	c-9.63,19.9-31.38,63.54-79.68,97.61c-20.47,14.44-49.76,35.09-89.69,37.17c-76.42,3.97-129.3-63.37-136.21-72.45
	c-14.91-18.99-33.6-47.1-47.92-84.34c-11.5-29.9-16.83-56.96-19.37-78.03c26.56,19.13,53.12,38.25,79.68,57.38
	c4.36,3.2,19.54,13.5,41.3,12.63c22.38-0.89,36.96-12.99,40.92-16.52C466.51,568.87,479.49,560.31,498.23,559.82z"/>
<path class="st5" d="M444.88,626.65h110.23c-0.6,2.41-1.9,6.32-4.93,10.14c-1.07,1.35-4.31,5.15-11.05,8.18
	c-19.16,8.63-57.7,7.12-76.8-0.58c-5.07-2.04-8.78-4.53-11.77-7.88C447.31,632.84,445.7,629.04,444.88,626.65z"/>
</svg>
